<svg width="193" height="52" viewBox="0 0 193 52" fill="none" xmlns="http://www.w3.org/2000/svg">
<g filter="url(#filter0_i_900_1236)">
<path d="M185 0L188.92 4.08L193 8V44L188.92 47.92L185 52H182H179H133.156C132.738 52 132.331 51.8692 131.991 51.626L126.055 47.374C125.715 47.1308 125.308 47 124.89 47H67.7259C67.2988 47 66.8828 47.1368 66.539 47.3902L60.8162 51.6098C60.4724 51.8632 60.0564 52 59.6293 52H14H11H8L4.08 47.92L0 44V8L4.08 4.08L8 0H11H14H59.6293C60.0564 0 60.4724 0.136758 60.8162 0.390247L66.539 4.60975C66.8828 4.86324 67.2988 5 67.7259 5H124.89C125.308 5 125.715 4.8692 126.055 4.62596L131.991 0.374039C132.331 0.130799 132.738 0 133.156 0H179H182H185Z" fill="#78FE7E"/>
</g>
<defs>
<filter id="filter0_i_900_1236" x="-1" y="-1" width="194" height="53" filterUnits="userSpaceOnUse" color-interpolation-filters="sRGB">
<feFlood flood-opacity="0" result="BackgroundImageFix"/>
<feBlend mode="normal" in="SourceGraphic" in2="BackgroundImageFix" result="shape"/>
<feColorMatrix in="SourceAlpha" type="matrix" values="0 0 0 0 0 0 0 0 0 0 0 0 0 0 0 0 0 0 127 0" result="hardAlpha"/>
<feOffset dx="-1" dy="-1"/>
<feGaussianBlur stdDeviation="1.5"/>
<feComposite in2="hardAlpha" operator="arithmetic" k2="-1" k3="1"/>
<feColorMatrix type="matrix" values="0 0 0 0 0 0 0 0 0 0 0 0 0 0 0 0 0 0 0.5 0"/>
<feBlend mode="normal" in2="shape" result="effect1_innerShadow_900_1236"/>
</filter>
</defs>
</svg>
