<svg width="173" height="28" viewBox="0 0 173 28" fill="none" xmlns="http://www.w3.org/2000/svg">
<path d="M34.3787 7.79791V4.24108H48.5465V6.04604L39.6486 18.9462H48.7584V22.8215H33.9285V20.6715L42.9853 7.79791H34.3787Z" fill="white"/>
<path d="M63.831 17.5128H54.218C54.4034 18.7869 55.6216 19.8221 57.7666 19.8221C58.7994 19.8221 60.2294 19.5832 61.1563 18.7869L63.3013 21.1758C61.8978 22.5561 59.6468 23.1135 57.6871 23.1135C52.9469 23.1135 50.3516 20.3264 50.3516 16.1326C50.3516 12.151 53.0263 9.36397 57.2899 9.36397C61.7389 9.36397 64.6519 12.151 63.831 17.5128ZM54.218 14.7258H60.4148C60.3353 13.2924 58.8788 12.6288 57.2899 12.6288C55.754 12.6288 54.5888 13.4251 54.218 14.7258Z" fill="white"/>
<path d="M66.3772 9.73558H69.9257L70.217 11.1689C71.0909 9.94793 72.2561 9.41706 73.7127 9.41706C74.9573 9.41706 75.9901 9.78867 76.917 10.6115L75.3281 13.6375C74.6925 13.1862 74.0304 12.9739 73.236 12.9739C71.5941 12.9739 70.1906 14.0356 70.1906 15.9999V22.8215H66.3772V9.73558Z" fill="white"/>
<path d="M84.4486 23.1135C80.0261 23.1135 77.2985 20.2468 77.2985 16.2918C77.2985 12.3368 80.1056 9.41706 84.4486 9.41706C88.8181 9.41706 91.6252 12.3368 91.6252 16.2918C91.6252 20.2468 88.8976 23.1135 84.4486 23.1135ZM84.4486 19.7159C86.779 19.7159 87.7588 18.0172 87.7588 16.2918C87.7588 14.6461 86.7525 12.8412 84.4486 12.8412C82.1712 12.8412 81.1648 14.6461 81.1648 16.2918C81.1648 17.9375 82.1447 19.7159 84.4486 19.7159Z" fill="white"/>
<path d="M93.8621 22.8215V19.424H96.987V9.39052L94.021 10.3195V6.70962L100.88 4.24108V19.424H103.793V22.8215H93.8621Z" fill="white"/>
<path d="M112.835 4.24108H116.966V19.0258H126.234V22.8215H112.835V4.24108Z" fill="white"/>
<path d="M138.247 11.222L138.379 9.70904H141.954C141.954 14.0622 141.954 18.4684 141.954 22.8215H138.512L138.3 21.1758C137.426 22.5561 135.546 23.087 134.275 23.1135C130.355 23.1401 127.522 20.5919 127.522 16.2653C127.522 11.9122 130.514 9.36397 134.381 9.41706C136.022 9.41706 137.558 10.0541 138.247 11.222ZM134.778 12.7881C132.871 12.7881 131.335 14.0887 131.335 16.2653C131.335 18.4419 132.871 19.7159 134.778 19.7159C136.923 19.7159 138.247 18.0437 138.247 16.398C138.247 14.5134 137.055 12.7881 134.778 12.7881Z" fill="white"/>
<path d="M152.591 12.8943C150.844 12.8943 149.069 14.0622 149.069 16.2653C149.069 18.7604 150.87 19.6363 152.591 19.6363C154.631 19.6363 155.796 18.1499 155.796 16.2653C155.796 14.3011 154.551 12.8943 152.591 12.8943ZM145.176 4.26762H149.016V11.3017C150.129 9.92139 151.585 9.44361 153.121 9.44361C156.961 9.44361 159.636 12.0183 159.636 16.2653C159.636 20.353 157.014 23.087 153.174 23.087C151.532 23.087 150.049 22.7154 148.831 21.1493L148.593 22.8215H145.176V4.26762Z" fill="white"/>
<path d="M172.232 11.0362L170.351 13.4251C169.372 12.735 168.445 12.4696 167.253 12.4696C166.008 12.4696 165.373 12.9208 165.373 13.5578C165.373 14.2745 166.035 14.6727 167.306 14.6992C169.875 14.7789 172.973 15.3097 173 18.9196C173.026 21.0431 171.437 23.3259 167.28 23.3259C165.346 23.3259 163.36 22.9543 161.136 21.0962L162.778 18.3888C164.393 19.7159 165.955 20.0079 167.333 20.0345C168.445 20.061 169.319 19.6098 169.292 18.9196C169.292 18.3091 168.842 17.8048 167.068 17.7517C164.631 17.6455 161.586 16.6369 161.586 13.5578C161.586 10.585 164.393 9.33743 167.227 9.33743C169.239 9.33743 170.855 9.84176 172.232 11.0362Z" fill="white"/>
<mask id="mask0_1075_727" style="mask-type:alpha" maskUnits="userSpaceOnUse" x="0" y="0" width="28" height="28">
<path d="M3.81933e-05 24.4504L5.64815 18.7956L1.89359 15.0365L0 16.9324L3.81933e-05 24.4504Z" fill="#83DBC0"/>
<path d="M9.54834e-06 10.6346L8.15137 18.7957L11.9059 15.0367L9.54834e-06 3.1165V10.6346Z" fill="#83DBC0"/>
<path d="M27.5669 3.11647L21.9188 8.77135L25.6733 12.5304L27.5669 10.6345L27.5669 3.11647Z" fill="#83DBC0"/>
<path d="M27.5669 16.9323L19.4155 8.77116L15.661 12.5302L27.5669 24.4504V16.9323Z" fill="#83DBC0"/>
<path d="M3.14574 3.83663e-05L8.79385 5.65492L12.5484 1.89586L10.6548 0L3.14574 3.83663e-05Z" fill="#83DBC0"/>
<path d="M16.945 9.55978e-06L8.79366 8.16114L12.5482 11.9202L24.4541 9.55978e-06H16.945Z" fill="#83DBC0"/>
<path d="M24.4212 27.5669L18.7731 21.912L15.0185 25.671L16.9121 27.5669L24.4212 27.5669Z" fill="#83DBC0"/>
<path d="M10.6219 27.5669L18.7732 19.4058L15.0187 15.6467L3.11277 27.5669H10.6219Z" fill="#83DBC0"/>
</mask>
<g mask="url(#mask0_1075_727)">
<path d="M3.81933e-05 24.4504L5.64815 18.7956L1.89359 15.0365L0 16.9324L3.81933e-05 24.4504Z" fill="#83DBC0"/>
<path d="M9.54834e-06 10.6346L8.15137 18.7957L11.9059 15.0367L9.54834e-06 3.1165V10.6346Z" fill="#83DBC0"/>
<path d="M27.5669 3.11647L21.9188 8.77135L25.6733 12.5304L27.5669 10.6345L27.5669 3.11647Z" fill="#83DBC0"/>
<path d="M27.5669 16.9323L19.4155 8.77116L15.661 12.5302L27.5669 24.4504V16.9323Z" fill="#83DBC0"/>
<path d="M3.14574 3.83663e-05L8.79385 5.65492L12.5484 1.89586L10.6548 0L3.14574 3.83663e-05Z" fill="#83DBC0"/>
<path d="M16.945 9.55978e-06L8.79366 8.16114L12.5482 11.9202L24.4541 9.55978e-06H16.945Z" fill="#83DBC0"/>
<path d="M24.4212 27.5669L18.7731 21.912L15.0185 25.671L16.9121 27.5669L24.4212 27.5669Z" fill="#83DBC0"/>
<path d="M10.6219 27.5669L18.7732 19.4058L15.0187 15.6467L3.11277 27.5669H10.6219Z" fill="#83DBC0"/>
<g filter="url(#filter0_f_1075_727)">
<path d="M-3.71093 -4.06432V4.27315H-1.85082L0.474313 1.0308L2.33442 -1.97995V-4.06432H-3.71093Z" fill="#5F5066"/>
<path d="M2.33429 -4.06432V-3.13793H3.03183L3.26435 -4.06432H2.33429Z" fill="#725C6A"/>
<path d="M3.26435 -4.06432L3.03183 -3.13793L2.3343 -2.21155V-1.97995L1.40425 1.0308L1.17173 3.11517L1.86928 5.19953H3.9619L4.65944 2.42038V0.567607L4.89195 -1.74836L4.65944 -4.06432H3.26435Z" fill="#78B8D4"/>
<path d="M4.65978 -4.06432L4.8923 -1.74836H5.82235L6.05486 -4.06432H4.65978Z" fill="#7F9CBD"/>
<path d="M6.05486 -4.06432L5.82235 -1.74836L6.05483 0.567607V2.42038V4.27315L12.5652 9.36827L12.7977 7.97869L12.1002 2.88357L10.2401 -2.21155L8.845 -4.06432H6.05486Z" fill="#75B2E4"/>
<path d="M8.84449 -4.06432L10.2396 -2.21155V-4.06432H8.84449Z" fill="#7895D3"/>
<path d="M10.24 -4.06432L10.2401 -2.21155L12.1002 2.88357L13.4952 2.88357H14.8902H16.2853L10.9654 -4.06432H10.24Z" fill="#778BAF"/>
<path d="M14.4251 -4.06432L16.2853 2.88357L16.2852 6.35752V9.36827H16.7502L20.0054 8.21029L22.3306 -4.06432H14.4251Z" fill="#78A3A8"/>
<path d="M22.3304 -4.06432L20.0053 8.21029L21.4004 8.44188L25.5856 5.19953L26.0506 4.27315V-4.06432H22.3304Z" fill="#7AABAE"/>
<path d="M26.0509 -4.06432V-2.67474H28.3761V-4.06432H26.0509Z" fill="#7F9CBD"/>
<path d="M28.3761 -4.06432V-2.67474L31.6312 -1.74836V-4.06432H28.3761Z" fill="#85958F"/>
<path d="M2.33429 -3.13793L2.3343 -2.21155L3.03183 -3.13793H2.33429Z" fill="#9FA079"/>
<path d="M26.0509 -2.67474V-0.821971H27.446H31.6313L31.6312 -1.74836L28.3761 -2.67474H26.0509Z" fill="#7895D3"/>
<path d="M2.3343 -1.97995L0.474313 1.0308L1.40425 1.0308L2.3343 -1.97995Z" fill="#A3C67F"/>
<path d="M4.8923 -1.74836L4.65978 0.56761L6.05483 0.567607L5.82235 -1.74836H4.8923Z" fill="#78A3A8"/>
<path d="M26.0509 -0.821971V4.27318L27.911 5.19956L27.446 -0.821971H26.0509Z" fill="#7BC7D6"/>
<path d="M27.446 -0.821971L27.911 5.19956L27.911 8.9051L28.6085 9.1367L31.6312 8.44191L31.6313 -0.821971H27.446Z" fill="#80D4D2"/>
<path d="M4.65978 0.56761V2.42038L6.05483 2.42038V0.567607L4.65978 0.56761Z" fill="#7AABAE"/>
<path d="M0.474313 1.0308L-1.85082 4.27315L-3.71093 7.5155V13.0738H-1.85082L1.17185 3.11517L1.40437 1.0308L0.474313 1.0308Z" fill="#A8BB6C"/>
<path d="M4.65944 2.42038L3.9619 5.19953L4.19434 8.44188H5.58942L6.05445 8.21029V2.42038L4.65944 2.42038Z" fill="#82BCA8"/>
<path d="M12.1 2.88357L12.7976 7.97869L13.4952 2.88357L12.1 2.88357Z" fill="#7895D3"/>
<path d="M13.4952 2.88357L12.7976 7.97869L12.565 9.36827L12.7976 11.221L16.2852 9.36827V6.35752L14.8902 2.88357H13.4952Z" fill="#7895D3"/>
<path d="M14.8901 2.88357L16.2852 6.35752L16.2852 2.88357H14.8901Z" fill="#7895D3"/>
<path d="M1.17185 3.11517L-1.85082 13.0738L-1.85087 14.0002H0.00924066V13.3054L0.939295 9.36831L1.86928 5.19953L1.17185 3.11517Z" fill="#7EC7BB"/>
<path d="M-3.71093 4.27315V7.5155L-1.85082 4.27315H-3.71093Z" fill="#97806A"/>
<path d="M6.05483 4.27315L6.05483 8.21028L12.4167 16.867L12.5652 15.3898L12.7977 11.221L12.5652 9.36827L6.05483 4.27315Z" fill="#7BC7D6"/>
<path d="M26.0509 4.27318L25.5859 5.19953L26.981 8.90507L27.911 8.9051L27.911 5.19956L26.0509 4.27318Z" fill="#7EC7BB"/>
<path d="M3.9619 5.19953L3.9619 -3.02323L2.13271 3.44247L0.939295 9.36831L3.72939 8.90508L4.19434 8.44188L3.9619 5.19953Z" fill="#8A92C8"/>
<path d="M25.5859 5.19953L21.4008 8.44188L21.8658 13.0738L22.3308 14.9266L24.656 16.3162H25.586L26.5161 14.4634L26.981 8.90507L25.5859 5.19953Z" fill="#82BCA8"/>
<path d="M6.05445 8.21029L5.58942 8.44188L10.2397 22.8009L11.6347 21.8745L12.0998 20.0217L12.4167 16.867L6.05445 8.21029Z" fill="#80D4D2"/>
<path d="M20.0058 8.21029L16.7506 9.36827V14.0002L17.2156 14.2318L21.8658 13.0738L21.4008 8.44188L20.0058 8.21029Z" fill="#99B3A9"/>
<path d="M4.19478 8.44188L3.72975 8.90508V12.8422L4.19478 22.3377V23.7272L5.58986 30.4435H9.31007L10.2401 22.8009L5.58986 8.44188H4.19478Z" fill="#83DABF"/>
<path d="M31.6312 8.44191L28.6085 9.1367L29.0735 11.9158L30.0036 12.1474H31.6312L31.6312 8.44191Z" fill="#7895D3"/>
<path d="M3.72939 8.90508L0.939295 9.36831L0.00924066 13.3054L3.72941 11.221L3.72939 8.90508Z" fill="#A795C0"/>
<path d="M26.9805 8.90508L26.5155 14.4634L28.8407 13.0738L29.0732 11.9158L28.6081 9.13667L27.9106 8.90508H26.9805Z" fill="#7BC7D6"/>
<path d="M16.2852 9.36827L12.7976 11.221L12.565 15.3898L16.7503 14.0002L16.7502 9.36827H16.2852Z" fill="#8A92C8"/>
<path d="M3.72941 11.221L0.00924066 13.3054V14.0002L0.00919534 15.853L2.79936 15.3898L3.72941 12.8422V11.221Z" fill="#C493BD"/>
<path d="M29.0732 11.9158L28.8407 13.0738L29.7707 13.0738L30.0032 12.1475L29.0732 11.9158Z" fill="#81CEE0"/>
<path d="M30.0036 12.1474L29.7711 13.0738V14.9266L31.6312 15.1582L31.6312 12.1474H30.0036Z" fill="#94D2B3"/>
<path d="M3.72941 12.8422L2.79936 15.3898L2.79929 22.3377H4.19437L3.72941 12.8422Z" fill="#C5CDBA"/>
<path d="M-3.71093 13.0738V15.853H-2.31585L-1.85087 14.0002L-1.85082 13.0738H-3.71093Z" fill="#A3C67F"/>
<path d="M21.8658 13.0738L17.2156 14.2318L16.7506 18.6321H21.4009L22.3308 14.9266L21.8658 13.0738Z" fill="#A0C7AA"/>
<path d="M28.8411 13.0738L26.5161 14.4634L25.586 16.3162L25.8184 19.5585H27.446L29.7711 14.9266V13.0738L28.8411 13.0738Z" fill="#80D4D2"/>
<path d="M-1.85087 14.0002L-2.31585 15.853L-0.688288 17.4741L0.00919534 15.853L0.00924066 14.0002H-1.85087Z" fill="#7AABAE"/>
<path d="M16.7503 14.0002L12.565 15.3898L12.1 20.0217L16.5178 19.5585L16.7503 18.6321L17.2153 14.2318L16.7503 14.0002Z" fill="#A795C0"/>
<path d="M22.3308 14.9266L21.4009 18.6321L21.8658 19.5585H24.656V16.3162L22.3308 14.9266Z" fill="#94D2B3"/>
<path d="M29.7711 14.9266L27.446 19.5585L27.446 30.4435H31.6312L31.6312 15.1582L29.7711 14.9266Z" fill="#81CEE0"/>
<path d="M3.70396 12.9766L0.00919534 15.853L0.00924066 13.2506L-1.85087 25.8116L0.939295 26.5064L1.63684 26.2748L2.33438 24.6536L2.7994 22.3377L3.70396 12.9766Z" fill="#D2A8BC"/>
<path d="M-3.71093 15.853V26.5064H-2.31585L-1.85087 25.8116L-0.688288 17.4741L-2.31585 15.853H-3.71093Z" fill="#72AF8C"/>
<path d="M24.656 16.3162V19.5585L25.1209 19.5585L25.8184 19.5585L25.586 16.3162H24.656Z" fill="#83DABF"/>
<path d="M16.7503 18.6321L16.5178 19.5585L16.5177 20.4849L21.633 30.4435H24.1906L21.8655 19.5585L21.4005 18.6321L16.7503 18.6321Z" fill="#B4D5B2"/>
<path d="M16.5178 19.5585L12.1 20.0217L11.635 21.8745L10.4725 30.4435V31.1135H12.9458L14.9262 31.2779L15.3553 30.4435L16.0528 24.6536L16.5178 20.4849L16.5178 19.5585Z" fill="#C493BD"/>
<path d="M21.8654 19.5585L24.1905 30.4435H26.0506L25.1206 19.5585H21.8654Z" fill="#A6DCBF"/>
<path d="M25.1209 19.5585L26.0509 30.4435L27.446 30.4435L27.446 19.5585H25.8184L25.1209 19.5585Z" fill="#8DDAD7"/>
<path d="M16.5177 20.4849L16.0526 24.6536L18.8428 30.4435L21.633 30.4435L16.5177 20.4849Z" fill="#C6CFB2"/>
<path d="M11.635 21.8745L10.24 22.8009L9.30994 30.4435L10.4725 30.4435L11.635 21.8745Z" fill="#C5CDBA"/>
<path d="M2.79929 22.3377L2.33438 24.6536L3.72937 24.6536L4.1944 23.7272L4.19437 22.3377H2.79929Z" fill="#C6CFB2"/>
<path d="M4.19478 23.7272L3.72975 24.6536L4.19478 30.4435L5.58986 30.4435L4.19478 23.7272Z" fill="#92DA98"/>
<path d="M2.33473 24.6536L1.63719 26.2748L1.40467 30.4435L4.19478 30.4435L3.72975 24.6536L2.33473 24.6536Z" fill="#CED589"/>
<path d="M16.0526 24.6536L15.3551 30.4435L18.8428 30.4435L16.0526 24.6536Z" fill="#C4B2BE"/>
<path d="M-1.85087 25.8116L-2.31585 26.5064L-2.7809 30.4435H0.474291L0.939295 26.5064L-1.85087 25.8116Z" fill="#CE9A94"/>
<path d="M1.63684 26.2748L0.939295 26.5064L0.474291 30.4435L1.40426 30.4435L1.63684 26.2748Z" fill="#D0B380"/>
<path d="M-3.71093 26.5064V30.4435L-2.7809 30.4435L-2.31585 26.5064H-3.71093Z" fill="#85958F"/>
</g>
</g>
<defs>
<filter id="filter0_f_1075_727" x="-4.59448" y="-4.94787" width="37.1093" height="37.1093" filterUnits="userSpaceOnUse" color-interpolation-filters="sRGB">
<feFlood flood-opacity="0" result="BackgroundImageFix"/>
<feBlend mode="normal" in="SourceGraphic" in2="BackgroundImageFix" result="shape"/>
<feGaussianBlur stdDeviation="0.441777" result="effect1_foregroundBlur_1075_727"/>
</filter>
</defs>
</svg>
