<svg width="64" height="64" viewBox="0 0 64 64" fill="none" xmlns="http://www.w3.org/2000/svg">
<path d="M9.63e-05 56.7647L13.1129 43.6362L4.39621 34.9091L7.62939e-06 39.3106L9.63e-05 56.7647Z" fill="black"/>
<path d="M2.9797e-05 24.6896L18.9244 43.6367L27.6411 34.9095L2.9797e-05 7.23534V24.6896Z" fill="black"/>
<path d="M63.9999 7.23528L50.8871 20.3638L59.6038 29.0909L64 24.6894L63.9999 7.23528Z" fill="black"/>
<path d="M64 39.3104L45.0756 20.3634L36.3589 29.0905L64 56.7647V39.3104Z" fill="black"/>
<path d="M7.30323 9.67016e-05L20.416 13.1286L29.1327 4.40148L24.7365 7.62939e-06L7.30323 9.67016e-05Z" fill="black"/>
<path d="M39.34 2.98236e-05L20.4156 18.9471L29.1323 27.6742L56.7733 2.98236e-05H39.34Z" fill="black"/>
<path d="M56.6968 63.9999L43.584 50.8714L34.8673 59.5985L39.2635 64L56.6968 63.9999Z" fill="black"/>
<path d="M24.66 64L43.5844 45.0529L34.8678 36.3258L7.22669 64H24.66Z" fill="black"/>
</svg>
