<svg width="32" height="32" viewBox="0 0 32 32" fill="none" xmlns="http://www.w3.org/2000/svg">
<mask id="mask0_900_594" style="mask-type:alpha" maskUnits="userSpaceOnUse" x="0" y="0" width="32" height="32">
<path d="M4.43353e-05 28.3824L6.55644 21.8181L2.1981 17.4546L0 19.6553L4.43353e-05 28.3824Z" fill="#83DBC0"/>
<path d="M1.10838e-05 12.3448L9.46221 21.8183L13.8205 17.4548L1.10838e-05 3.61767V12.3448Z" fill="#83DBC0"/>
<path d="M32 3.61764L25.4436 10.1819L29.8019 14.5454L32 12.3447L32 3.61764Z" fill="#83DBC0"/>
<path d="M32 19.6552L22.5378 10.1817L18.1795 14.5452L32 28.3823V19.6552Z" fill="#83DBC0"/>
<path d="M3.65161 4.45361e-05L10.208 6.56429L14.5663 2.20073L12.3682 0L3.65161 4.45361e-05Z" fill="#83DBC0"/>
<path d="M19.67 1.10971e-05L10.2078 9.47355L14.5661 13.8371L28.3867 1.10971e-05H19.67Z" fill="#83DBC0"/>
<path d="M28.3484 32L21.792 25.4357L17.4337 29.7993L19.6318 32L28.3484 32Z" fill="#83DBC0"/>
<path d="M12.33 32L21.7922 22.5265L17.4339 18.1629L3.61334 32H12.33Z" fill="#83DBC0"/>
</mask>
<g mask="url(#mask0_900_594)">
<path d="M4.43353e-05 28.3824L6.55644 21.8181L2.1981 17.4546L0 19.6553L4.43353e-05 28.3824Z" fill="#83DBC0"/>
<path d="M1.10838e-05 12.3448L9.46221 21.8183L13.8205 17.4548L1.10838e-05 3.61767V12.3448Z" fill="#83DBC0"/>
<path d="M32 3.61764L25.4436 10.1819L29.8019 14.5454L32 12.3447L32 3.61764Z" fill="#83DBC0"/>
<path d="M32 19.6552L22.5378 10.1817L18.1795 14.5452L32 28.3823V19.6552Z" fill="#83DBC0"/>
<path d="M3.65161 4.45361e-05L10.208 6.56429L14.5663 2.20073L12.3682 0L3.65161 4.45361e-05Z" fill="#83DBC0"/>
<path d="M19.67 1.10971e-05L10.2078 9.47355L14.5661 13.8371L28.3867 1.10971e-05H19.67Z" fill="#83DBC0"/>
<path d="M28.3484 32L21.792 25.4357L17.4337 29.7993L19.6318 32L28.3484 32Z" fill="#83DBC0"/>
<path d="M12.33 32L21.7922 22.5265L17.4339 18.1629L3.61334 32H12.33Z" fill="#83DBC0"/>
<g filter="url(#filter0_f_900_594)">
<path d="M-1 -1V7.25674H0.842098L3.14472 4.04579L4.98682 1.06419V-1H-1Z" fill="#5F5066"/>
<path d="M4.98669 -1V-0.0825839H5.67748L5.90774 -1H4.98669Z" fill="#725C6A"/>
<path d="M5.90774 -1L5.67748 -0.0825839L4.9867 0.834832V1.06419L4.06565 4.04579L3.83539 6.10997L4.52618 8.17416H6.59854L7.28932 5.42191V3.58708L7.51959 1.29354L7.28932 -1H5.90774Z" fill="#78B8D4"/>
<path d="M7.28967 -1L7.51993 1.29354H8.44098L8.67124 -1H7.28967Z" fill="#7F9CBD"/>
<path d="M8.67124 -1L8.44098 1.29354L8.67121 3.58708V5.42191V7.25674L15.1186 12.3025L15.3488 10.9264L14.658 5.88062L12.8159 0.834832L11.4344 -1H8.67124Z" fill="#75B2E4"/>
<path d="M11.4339 -1L12.8154 0.834832V-1H11.4339Z" fill="#7895D3"/>
<path d="M12.8158 -1L12.8159 0.834832L14.658 5.88062L16.0395 5.88062H17.4211H18.8026L13.5343 -1H12.8158Z" fill="#778BAF"/>
<path d="M16.9604 -1L18.8026 5.88062L18.8025 9.32093V12.3025H19.2631L22.4867 11.1558L24.7894 -1H16.9604Z" fill="#78A3A8"/>
<path d="M24.7892 -1L22.4866 11.1558L23.8682 11.3851L28.0129 8.17416L28.4734 7.25674V-1H24.7892Z" fill="#7AABAE"/>
<path d="M28.4737 -1V0.376124H30.7763V-1H28.4737Z" fill="#7F9CBD"/>
<path d="M30.7763 -1V0.376124L33.9999 1.29354V-1H30.7763Z" fill="#85958F"/>
<path d="M4.98669 -0.0825839L4.9867 0.834832L5.67748 -0.0825839H4.98669Z" fill="#9FA079"/>
<path d="M28.4737 0.376124V2.21096H29.8553H34L33.9999 1.29354L30.7763 0.376124H28.4737Z" fill="#7895D3"/>
<path d="M4.9867 1.06419L3.14472 4.04579L4.06565 4.04579L4.9867 1.06419Z" fill="#A3C67F"/>
<path d="M7.51993 1.29354L7.28967 3.58708L8.67121 3.58708L8.44098 1.29354H7.51993Z" fill="#78A3A8"/>
<path d="M28.4737 2.21096V7.25677L30.3158 8.17419L29.8553 2.21096H28.4737Z" fill="#7BC7D6"/>
<path d="M29.8553 2.21096L30.3158 8.17419L30.3158 11.8439L31.0066 12.0732L34 11.3851L34 2.21096H29.8553Z" fill="#80D4D2"/>
<path d="M7.28967 3.58708V5.42192L8.67121 5.42191V3.58708L7.28967 3.58708Z" fill="#7AABAE"/>
<path d="M3.14472 4.04579L0.842098 7.25674L-1 10.4677V15.9722H0.842098L3.83551 6.10998L4.06577 4.04579L3.14472 4.04579Z" fill="#A8BB6C"/>
<path d="M7.28932 5.42191L6.59854 8.17416L6.82873 11.3851H8.21031L8.67083 11.1558V5.42191L7.28932 5.42191Z" fill="#82BCA8"/>
<path d="M14.6579 5.88062L15.3487 10.9264L16.0395 5.88062L14.6579 5.88062Z" fill="#7895D3"/>
<path d="M16.0395 5.88062L15.3487 10.9264L15.1184 12.3025L15.3487 14.1374L18.8025 12.3025V9.32093L17.4211 5.88062H16.0395Z" fill="#7895D3"/>
<path d="M17.421 5.88062L18.8025 9.32093L18.8025 5.88062H17.421Z" fill="#7895D3"/>
<path d="M3.83551 6.10998L0.842098 15.9722L0.842053 16.8897H2.68415V16.2016L3.6052 12.3026L4.52618 8.17416L3.83551 6.10998Z" fill="#7EC7BB"/>
<path d="M-1 7.25674V10.4677L0.842098 7.25674H-1Z" fill="#97806A"/>
<path d="M8.67121 7.25674L8.67121 11.1558L14.9715 19.7287L15.1185 18.2657L15.3488 14.1374L15.1186 12.3025L8.67121 7.25674Z" fill="#7BC7D6"/>
<path d="M28.4737 7.25677L28.0132 8.17416L29.3948 11.8438L30.3158 11.8439L30.3158 8.17419L28.4737 7.25677Z" fill="#7EC7BB"/>
<path d="M6.59854 8.17416L6.59854 0.0310078L4.78706 6.43411L3.6052 12.3026L6.36828 11.8438L6.82873 11.3851L6.59854 8.17416Z" fill="#8A92C8"/>
<path d="M28.0132 8.17416L23.8686 11.3851L24.3291 15.9722L24.7896 17.807L27.0922 19.1832H28.0133L28.9343 17.3483L29.3948 11.8438L28.0132 8.17416Z" fill="#82BCA8"/>
<path d="M8.67083 11.1558L8.21031 11.3851L12.8155 25.6051L14.1971 24.6877L14.6576 22.8528L14.9715 19.7287L8.67083 11.1558Z" fill="#80D4D2"/>
<path d="M22.4871 11.1558L19.2634 12.3025V16.8896L19.724 17.119L24.3291 15.9722L23.8686 11.3851L22.4871 11.1558Z" fill="#99B3A9"/>
<path d="M6.82916 11.3851L6.36864 11.8438V15.7428L6.82916 25.1464V26.5225L8.21074 33.1737H11.8949L12.816 25.6051L8.21074 11.3851H6.82916Z" fill="#83DABF"/>
<path d="M34 11.3851L31.0066 12.0732L31.467 14.8254L32.3881 15.0548H33.9999L34 11.3851Z" fill="#7895D3"/>
<path d="M6.36828 11.8438L3.6052 12.3026L2.68415 16.2016L6.3683 14.1374L6.36828 11.8438Z" fill="#A795C0"/>
<path d="M29.3943 11.8438L28.9338 17.3483L31.2364 15.9722L31.4667 14.8254L31.0061 12.0732L30.3154 11.8438H29.3943Z" fill="#7BC7D6"/>
<path d="M18.8025 12.3025L15.3487 14.1374L15.1184 18.2657L19.2631 16.8896L19.2631 12.3025H18.8025Z" fill="#8A92C8"/>
<path d="M6.3683 14.1374L2.68415 16.2016V16.8897L2.68411 18.7245L5.44725 18.2657L6.3683 15.7429V14.1374Z" fill="#C493BD"/>
<path d="M31.4667 14.8254L31.2364 15.9722L32.1574 15.9722L32.3877 15.0548L31.4667 14.8254Z" fill="#81CEE0"/>
<path d="M32.3881 15.0548L32.1578 15.9722V17.8071L33.9999 18.0364L33.9999 15.0548H32.3881Z" fill="#94D2B3"/>
<path d="M6.3683 15.7429L5.44725 18.2657L5.44719 25.1464H6.82876L6.3683 15.7429Z" fill="#C5CDBA"/>
<path d="M-1 15.9722V18.7244H0.381574L0.842053 16.8897L0.842098 15.9722H-1Z" fill="#A3C67F"/>
<path d="M24.3291 15.9722L19.724 17.119L19.2634 21.4767H23.8687L24.7896 17.807L24.3291 15.9722Z" fill="#A0C7AA"/>
<path d="M31.2369 15.9722L28.9343 17.3483L28.0133 19.1832L28.2435 22.3941H29.8553L32.1578 17.8071V15.9722L31.2369 15.9722Z" fill="#80D4D2"/>
<path d="M0.842053 16.8897L0.381574 18.7244L1.99338 20.3299L2.68411 18.7245L2.68415 16.8897H0.842053Z" fill="#7AABAE"/>
<path d="M19.2631 16.8896L15.1184 18.2657L14.6579 22.8528L19.0329 22.3941L19.2631 21.4767L19.7236 17.119L19.2631 16.8896Z" fill="#A795C0"/>
<path d="M24.7896 17.807L23.8687 21.4767L24.3291 22.3941H27.0922V19.1832L24.7896 17.807Z" fill="#94D2B3"/>
<path d="M32.1578 17.8071L29.8553 22.3941L29.8552 33.1737H34L33.9999 18.0364L32.1578 17.8071Z" fill="#81CEE0"/>
<path d="M6.3431 15.876L2.68411 18.7245L2.68415 16.1473L0.842053 28.5867L3.6052 29.2747L4.29599 29.0454L4.98677 27.4399L5.4473 25.1464L6.3431 15.876Z" fill="#D2A8BC"/>
<path d="M-1 18.7244V29.2747H0.381574L0.842053 28.5867L1.99338 20.3299L0.381574 18.7244H-1Z" fill="#72AF8C"/>
<path d="M27.0922 19.1832V22.3941L27.5527 22.3941L28.2435 22.3941L28.0133 19.1832H27.0922Z" fill="#83DABF"/>
<path d="M19.2631 21.4767L19.0329 22.3941L19.0328 23.3115L24.0985 33.1737H26.6314L24.3288 22.3941L23.8683 21.4767L19.2631 21.4767Z" fill="#B4D5B2"/>
<path d="M19.0329 22.3941L14.6579 22.8528L14.1974 24.6877L13.0461 33.1738V33.8372H15.4955L17.4567 34L17.8816 33.1738L18.5724 27.4399L19.0329 23.3115L19.0329 22.3941Z" fill="#C493BD"/>
<path d="M24.3287 22.3941L26.6313 33.1738H28.4734L27.5523 22.3941H24.3287Z" fill="#A6DCBF"/>
<path d="M27.5527 22.3941L28.4737 33.1738L29.8552 33.1737L29.8553 22.3941H28.2435L27.5527 22.3941Z" fill="#8DDAD7"/>
<path d="M19.0328 23.3115L18.5722 27.4399L21.3354 33.1738L24.0985 33.1737L19.0328 23.3115Z" fill="#C6CFB2"/>
<path d="M14.1974 24.6877L12.8158 25.6051L11.8948 33.1737L13.0461 33.1738L14.1974 24.6877Z" fill="#C5CDBA"/>
<path d="M5.44719 25.1464L4.98677 27.4399L6.36826 27.4399L6.82879 26.5225L6.82876 25.1464H5.44719Z" fill="#C6CFB2"/>
<path d="M6.82916 26.5225L6.36864 27.4399L6.82916 33.1737L8.21074 33.1737L6.82916 26.5225Z" fill="#92DA98"/>
<path d="M4.98712 27.4399L4.29633 29.0454L4.06607 33.1738L6.82916 33.1737L6.36864 27.4399L4.98712 27.4399Z" fill="#CED589"/>
<path d="M18.5722 27.4399L17.8815 33.1738L21.3354 33.1738L18.5722 27.4399Z" fill="#C4B2BE"/>
<path d="M0.842053 28.5867L0.381574 29.2747L-0.0789734 33.1738H3.1447L3.6052 29.2747L0.842053 28.5867Z" fill="#CE9A94"/>
<path d="M4.29599 29.0454L3.6052 29.2747L3.1447 33.1738L4.06567 33.1737L4.29599 29.0454Z" fill="#D0B380"/>
<path d="M-1 29.2747V33.1737L-0.0789734 33.1738L0.381574 29.2747H-1Z" fill="#85958F"/>
</g>
</g>
<defs>
<filter id="filter0_f_900_594" x="-4" y="-4" width="41" height="41" filterUnits="userSpaceOnUse" color-interpolation-filters="sRGB">
<feFlood flood-opacity="0" result="BackgroundImageFix"/>
<feBlend mode="normal" in="SourceGraphic" in2="BackgroundImageFix" result="shape"/>
<feGaussianBlur stdDeviation="1.5" result="effect1_foregroundBlur_900_594"/>
</filter>
</defs>
</svg>
